# xmcd
# Track frame offsets:
# 150
# 9273
# 21034
# 34764
# 46531
# 56904
# 67723
# 81827
# 94759
# 107877
# 120590
# 133360
# 145641
# 155873
# 165944
# 179351
# 190922
# 201126
# 211521
#
# Disc length: 2991 seconds
# Revision: 0
# Processed by: cddbd v1.4PL0 Copyright (c) Steve Scherf et al.
# Submitted via: VisiTrax 2.9.5.180 - For more info visit www.synapsa.com
#
DISCID=f50bad13
DTITLE=Various Artist - Country Complete  Volume 2 Disc 1
DYEAR=2001
DGENRE=
TTITLE0=Frankie Laine - Rawhide
TTITLE1=Wanda Jackson - Right Or Wrong
TTITLE2=Johnny Cash - Don't Take Your Guns To Town
TTITLE3=Tammy Wynette - I Don't Wanna Play House
TTITLE4=Faron Young - Live Fast Love Hard Die Young
TTITLE5=Fendermen - Mule Skinner Blues
TTITLE6=Jim Reeves - Guilty
TTITLE7=Bobby Bare - Millers Cave
TTITLE8=Marty Robbins - Devil Woman
TTITLE9=Johnny Tillotson - It Keeps Right On A Hurtin'
TTITLE10=Jimmy Elledge - Funny How Time Slips Away
TTITLE11=Nelson, Willie and Shirley Collie - Willingly
TTITLE12=Everly Brothers - Brand New Heartache
TTITLE13=Sonny James - You're The Only World I Know
TTITLE14=David Houston - Almost Persuaded
TTITLE15=Skeeter Davis - My Last Date With You
TTITLE16=Billy Walker - Charlie's Shoes
TTITLE17=Jody Miller - Queen Of The House
TTITLE18=Glen Campbell - Bonaparte's Retreat
EXTD=EMI Australia
EXTT0=
EXTT1=
EXTT2=
EXTT3=
EXTT4=
EXTT5=
EXTT6=
EXTT7=
EXTT8=
EXTT9=
EXTT10=
EXTT11=
EXTT12=
EXTT13=
EXTT14=
EXTT15=
EXTT16=
EXTT17=
EXTT18=
PLAYORDER=
